<svg width="74" height="74" viewBox="0 0 74 74" fill="none" xmlns="http://www.w3.org/2000/svg">
<circle cx="37" cy="37" r="37" fill="#7A27C1"/>
<path d="M4.37492 25.95H11.5884V48H4.37492V25.95ZM13.0374 48H9.16292V42.015H12.7224C13.3314 42.015 13.9509 41.9625 14.5809 41.8575C15.2109 41.7525 15.7884 41.532 16.3134 41.196C16.8384 40.86 17.2584 40.356 17.5734 39.684C17.9094 39.012 18.0774 38.109 18.0774 36.975C18.0774 35.841 17.9094 34.938 17.5734 34.266C17.2584 33.594 16.8384 33.09 16.3134 32.754C15.7884 32.418 15.2109 32.1975 14.5809 32.0925C13.9509 31.9875 13.3314 31.935 12.7224 31.935H9.16292V25.95H13.0374C15.5994 25.95 17.7939 26.391 19.6209 27.273C21.4689 28.155 22.8759 29.415 23.8419 31.053C24.8289 32.691 25.3224 34.665 25.3224 36.975C25.3224 39.264 24.8289 41.238 23.8419 42.897C22.8759 44.535 21.4689 45.795 19.6209 46.677C17.7939 47.559 15.5994 48 13.0374 48ZM33.2493 48V42.4875H44.3688V48H33.2493ZM33.2493 31.4625V25.95H44.3688V31.4625H33.2493ZM33.2493 39.3375V33.9825H43.7388V39.3375H33.2493ZM28.4613 25.95H35.0763V48H28.4613V25.95ZM58.5365 36.723L62.789 25.95H70.979L58.5365 49.575L46.094 25.95H54.284L58.5365 36.723Z" fill="white"/>
</svg>
