<svg xmlns="http://www.w3.org/2000/svg" width="439" height="143" fill="none"><g fill-rule="evenodd" clip-path="url(#a)" clip-rule="evenodd"><path fill="#fff" d="m228.562 172.171-6.303-16.847a2.8342 2.8342 0 0 1 .468-2.797l15.239-18.494a2.8343 2.8343 0 0 1 2.656-.993l18.014 3.01-.97-2.596-18.016-3.011a2.8366 2.8366 0 0 0-2.656.994l-17.002 20.633a2.8363 2.8363 0 0 0-.467 2.797l6.302 16.847 2.735.457Zm35.579-35.201-1.006-2.602 2.886.482a2.836 2.836 0 0 1 2.188 1.804l9.368 25.041c.355.949.177 2.015-.467 2.797l-17.002 20.633a2.8358 2.8358 0 0 1-2.656.994l-1.301-.218-.975-2.597 1.304.218c1 .167 2.012-.211 2.656-.993l15.24-18.494c.644-.782.822-1.848.467-2.797l-8.397-22.445a2.8348 2.8348 0 0 0-2.188-1.803l-.117-.02Zm-14.561 45.399-16.735-2.797c-1-.167-1.834-.854-2.189-1.803l-.151-.405-2.735-.457 1.123 3.001a2.836 2.836 0 0 0 2.189 1.804l19.48 3.255-.982-2.598Z"/><path fill="#FA3AFE" d="M215.176 146.093a2.8366 2.8366 0 0 0-.468 2.797l8.397 22.445c.355.948 1.19 1.636 2.189 1.803l23.636 3.95c.999.167 2.011-.212 2.656-.993l15.239-18.495a2.836 2.836 0 0 0 .467-2.797l-8.397-22.444a2.8348 2.8348 0 0 0-2.188-1.803l-23.636-3.951a2.8358 2.8358 0 0 0-2.656.994l-15.239 18.494Zm16.924-22.084c-1-.167-2.012.212-2.656.993l-17.002 20.634a2.8342 2.8342 0 0 0-.468 2.797l9.368 25.041c.355.949 1.19 1.636 2.189 1.803l26.37 4.408c.999.167 2.012-.212 2.656-.994l17.002-20.634c.644-.781.823-1.848.468-2.797l-9.369-25.041a2.8367 2.8367 0 0 0-2.188-1.803l-26.37-4.407Z"/><path fill="#FA3AFE" d="M168.739 163.473a2.8366 2.8366 0 0 0-.468 2.797l8.397 22.444c.355.949 1.19 1.637 2.189 1.804l23.636 3.95c.999.167 2.011-.212 2.656-.994l15.239-18.494c.644-.782.822-1.848.467-2.797l-8.397-22.444a2.836 2.836 0 0 0-2.188-1.804l-23.636-3.95a2.8358 2.8358 0 0 0-2.656.994l-15.239 18.494Zm16.924-22.085c-1-.167-2.012.212-2.656.994l-17.002 20.634a2.8342 2.8342 0 0 0-.468 2.797l9.368 25.041c.355.949 1.19 1.636 2.189 1.803l26.37 4.407c.999.167 2.012-.211 2.656-.993l17.002-20.634c.644-.782.823-1.848.468-2.797l-9.369-25.041a2.8348 2.8348 0 0 0-2.188-1.803l-26.37-4.408ZM165.978 102.427a2.8346 2.8346 0 0 0-.468 2.797l8.397 22.445a2.8347 2.8347 0 0 0 2.189 1.803l23.636 3.951c.999.167 2.011-.212 2.656-.994l15.239-18.494c.644-.782.822-1.848.467-2.797l-8.397-22.4447a2.8354 2.8354 0 0 0-2.188-1.8033l-23.636-3.9503c-1-.167-2.012.2117-2.656.9936l-15.239 18.4937Zm16.923-22.0838a2.8366 2.8366 0 0 0-2.656.9936L163.243 101.97a2.8367 2.8367 0 0 0-.467 2.797l9.368 25.041a2.836 2.836 0 0 0 2.189 1.804l26.37 4.407c.999.167 2.012-.212 2.656-.994l17.002-20.633c.644-.782.822-1.848.467-2.797l-9.368-25.0412a2.8354 2.8354 0 0 0-2.188-1.8033l-26.371-4.4073Z"/><path fill="#FA3AFE" d="M174.13 53.5484a2.8363 2.8363 0 0 0-.467 2.797l8.397 22.4445a2.8354 2.8354 0 0 0 2.188 1.8033l23.636 3.9503a2.8355 2.8355 0 0 0 2.656-.9936l15.239-18.4941a2.8366 2.8366 0 0 0 .468-2.797l-8.397-22.4445a2.8368 2.8368 0 0 0-2.189-1.8033l-23.636-3.9504a2.8367 2.8367 0 0 0-2.656.9937L174.13 53.5484Zm16.924-22.0843a2.8358 2.8358 0 0 0-2.656.9937l-17.002 20.6336a2.8366 2.8366 0 0 0-.468 2.797l9.369 25.041a2.8354 2.8354 0 0 0 2.188 1.8033l26.37 4.4073c1 .167 2.012-.2117 2.656-.9936l17.002-20.6336a2.8342 2.8342 0 0 0 .468-2.797l-9.368-25.041a2.8368 2.8368 0 0 0-2.189-1.8033l-26.37-4.4074Z"/><path fill="#FA3AFE" d="M127.693 70.9278a2.8366 2.8366 0 0 0-.468 2.797l8.397 22.4445a2.8368 2.8368 0 0 0 2.189 1.8033l23.636 3.9504c.999.167 2.012-.212 2.656-.994l15.239-18.4938a2.8363 2.8363 0 0 0 .467-2.797l-8.397-22.4445a2.8354 2.8354 0 0 0-2.188-1.8033L145.588 51.44a2.8358 2.8358 0 0 0-2.656.9937l-15.239 18.4941Zm16.924-22.0843a2.835 2.835 0 0 0-2.656.9937l-17.002 20.6336a2.8342 2.8342 0 0 0-.468 2.797l9.368 25.041a2.8365 2.8365 0 0 0 2.189 1.8032l26.37 4.407c.999.167 2.012-.211 2.656-.993l17.002-20.6339c.644-.7818.823-1.848.468-2.7969l-9.369-25.041a2.8354 2.8354 0 0 0-2.188-1.8033l-26.37-4.4074Z"/><path fill="#fff" d="M174.087 108.955a2.8363 2.8363 0 0 0-.467 2.797l6.253 16.715-2.734-.457-6.253-16.715a2.8363 2.8363 0 0 1 .467-2.797l17.002-20.6336a2.8357 2.8357 0 0 1 2.656-.9936l18.064 3.019.992 2.6-18.085-3.0225a2.8364 2.8364 0 0 0-2.656.9936l-15.239 18.4941Zm5.016 24.306 1.151 3.075a2.8348 2.8348 0 0 0 2.188 1.803l26.371 4.408c.999.167 2.011-.212 2.656-.994l17.002-20.634c.644-.782.822-1.848.467-2.797l-9.368-25.0406a2.8353 2.8353 0 0 0-2.189-1.8033l-2.704-.4521.982 2.5984c.974.1628 1.787.833 2.134 1.7581l8.411 22.4825c.355.949.177 2.015-.468 2.797l-15.239 18.495a2.8365 2.8365 0 0 1-2.656.993L184.205 136a2.8367 2.8367 0 0 1-2.188-1.803l-.179-.479-2.735-.457Z"/><path fill="#fff" d="m188.075 79.7195-6.303-16.8467a2.8342 2.8342 0 0 1 .468-2.797l15.239-18.4942a2.8349 2.8349 0 0 1 2.656-.9936l18.014 3.0108-.97-2.5963-18.016-3.011a2.8368 2.8368 0 0 0-2.656.9936l-17.002 20.6337a2.8363 2.8363 0 0 0-.467 2.797l6.303 16.8467 2.734.457Zm35.579-35.2006-1.006-2.6024 2.886.4823c.999.167 1.833.8545 2.188 1.8033l9.368 25.041a2.8363 2.8363 0 0 1-.467 2.797l-17.002 20.6336a2.8358 2.8358 0 0 1-2.656.9937l-1.301-.2175-.975-2.597 1.305.218a2.8367 2.8367 0 0 0 2.656-.9937l15.239-18.4941a2.8363 2.8363 0 0 0 .467-2.797l-8.397-22.4445a2.8356 2.8356 0 0 0-2.188-1.8033l-.117-.0194Zm-14.561 45.3987-16.735-2.797a2.8356 2.8356 0 0 1-2.189-1.8034l-.151-.4047-2.735-.457 1.123 3.0012a2.8356 2.8356 0 0 0 2.189 1.8034l19.48 3.2558-.982-2.5983Z"/><path fill="#fff" d="M135.803 77.4554a2.8342 2.8342 0 0 0-.468 2.797l6.288 16.806-2.735-.457-6.287-16.806a2.8363 2.8363 0 0 1 .467-2.797l17.002-20.6336a2.8367 2.8367 0 0 1 2.656-.9937l17.961 3.0018.986 2.5989-17.975-3.0042a2.835 2.835 0 0 0-2.656.9937l-15.239 18.4941Zm40.651-18.1187.986 2.599c.933.156 1.713.7983 2.045 1.685l5.855 15.6524 2.735.457-6.79-18.1483a2.8354 2.8354 0 0 0-2.188-1.8033l-2.643-.4418Zm13.564 25.5864-2.735-.457.636 1.6997a2.836 2.836 0 0 1-.467 2.7969l-15.239 18.4943a2.8366 2.8366 0 0 1-2.656.994l-1.447-.242.947 2.592 1.471.246c.999.167 2.012-.212 2.656-.994l17.002-20.6333a2.8361 2.8361 0 0 0 .467-2.7969l-.635-1.6997Zm-46.286 17.7739a2.8347 2.8347 0 0 0 2.189 1.803l16.685 2.789.966 2.595-19.414-3.244a2.836 2.836 0 0 1-2.189-1.804l-1.086-2.903 2.734.457.115.307Z"/><path fill="#FA3AFE" d="M165.981 102.424a2.836 2.836 0 0 0-.467 2.797l8.397 22.444a2.8348 2.8348 0 0 0 2.188 1.803l23.636 3.951c.999.167 2.012-.212 2.656-.994l15.239-18.494c.644-.782.823-1.848.468-2.797l-8.397-22.4446a2.8368 2.8368 0 0 0-2.189-1.8033l-23.636-3.9503a2.8364 2.8364 0 0 0-2.656.9936l-15.239 18.4946Zm16.924-22.0847a2.8357 2.8357 0 0 0-2.656.9936l-17.002 20.6341a2.8362 2.8362 0 0 0-.468 2.797l9.369 25.041a2.8367 2.8367 0 0 0 2.188 1.803l26.37 4.407c1 .167 2.012-.212 2.656-.993l17.002-20.634c.645-.782.823-1.848.468-2.797l-9.368-25.0411a2.8368 2.8368 0 0 0-2.189-1.8033l-26.37-4.4073Z"/><path fill="#FA3AFE" d="M174.134 53.5446a2.8342 2.8342 0 0 0-.468 2.797l8.397 22.4445a2.8353 2.8353 0 0 0 2.189 1.8033l23.636 3.9504a2.8367 2.8367 0 0 0 2.656-.9937l15.239-18.4941a2.8363 2.8363 0 0 0 .467-2.797l-8.397-22.4445a2.8354 2.8354 0 0 0-2.188-1.8033l-23.636-3.9503c-1-.1671-2.012.2117-2.656.9936l-15.239 18.4941Zm16.923-22.0842a2.8366 2.8366 0 0 0-2.656.9936l-17.002 20.6336a2.8363 2.8363 0 0 0-.467 2.797l9.368 25.041a2.8353 2.8353 0 0 0 2.189 1.8033l26.37 4.4074a2.8358 2.8358 0 0 0 2.656-.9937l17.002-20.6336a2.8363 2.8363 0 0 0 .467-2.797l-9.368-25.041a2.8354 2.8354 0 0 0-2.188-1.8033l-26.371-4.4073Z"/><path fill="#FA3AFE" d="M127.696 70.924a2.8363 2.8363 0 0 0-.467 2.797l8.397 22.4445a2.8354 2.8354 0 0 0 2.188 1.8033l23.636 3.9502c1 .167 2.012-.212 2.656-.993l15.239-18.4946a2.8342 2.8342 0 0 0 .468-2.797l-8.397-22.4445a2.8353 2.8353 0 0 0-2.189-1.8033l-23.636-3.9504a2.834 2.834 0 0 0-2.655.9937l-15.24 18.4941Zm16.924-22.0842a2.8355 2.8355 0 0 0-2.656.9936L124.962 70.467a2.8363 2.8363 0 0 0-.467 2.797l9.368 25.041a2.8345 2.8345 0 0 0 2.188 1.803l26.371 4.408c.999.167 2.011-.212 2.656-.994l17.002-20.6336a2.8363 2.8363 0 0 0 .467-2.797l-9.368-25.041a2.8353 2.8353 0 0 0-2.189-1.8033l-26.37-4.4073Z"/><path fill="#fff" d="M272.263 129.966a2.8342 2.8342 0 0 0-.468 2.797l6.253 16.714-2.734-.457-6.253-16.714a2.8363 2.8363 0 0 1 .467-2.797l17.002-20.634a2.8358 2.8358 0 0 1 2.656-.994l18.064 3.019.992 2.6-18.084-3.022c-1-.167-2.012.212-2.656.994l-15.239 18.494Zm5.016 24.305 1.15 3.076a2.8347 2.8347 0 0 0 2.189 1.803l26.37 4.407c.999.167 2.012-.211 2.656-.993l17.002-20.634c.644-.782.822-1.848.467-2.797l-9.368-25.041a2.8347 2.8347 0 0 0-2.189-1.803l-2.704-.452.982 2.598c.974.163 1.788.833 2.134 1.758l8.411 22.483c.355.949.177 2.015-.468 2.797l-15.239 18.494a2.835 2.835 0 0 1-2.656.994l-23.636-3.951a2.8348 2.8348 0 0 1-2.188-1.803l-.179-.479-2.734-.457Z"/><path fill="#fff" d="m286.25 100.73-6.303-16.8466a2.8366 2.8366 0 0 1 .468-2.797l15.239-18.4941a2.8358 2.8358 0 0 1 2.656-.9937l18.014 3.0108-.97-2.5963-18.015-3.011a2.835 2.835 0 0 0-2.656.9937l-17.002 20.6336a2.8342 2.8342 0 0 0-.468 2.797l6.303 16.8466 2.734.457Zm35.579-35.2005-1.006-2.6024 2.886.4823c.999.167 1.833.8545 2.188 1.8034l9.369 25.0409a2.8366 2.8366 0 0 1-.468 2.797l-17.002 20.6333a2.8358 2.8358 0 0 1-2.656.994l-1.301-.217-.974-2.597 1.304.218c.999.167 2.011-.212 2.656-.994l15.239-18.4943a2.8363 2.8363 0 0 0 .467-2.797l-8.397-22.4444a2.8355 2.8355 0 0 0-2.188-1.8034l-.117-.0194Zm-14.561 45.3985-16.735-2.797a2.8363 2.8363 0 0 1-2.189-1.803l-.151-.405-2.734-.457 1.122 3.001c.355.949 1.19 1.637 2.189 1.804l19.481 3.256-.983-2.599Z"/><path fill="#fff" d="M233.978 98.4661a2.8364 2.8364 0 0 0-.468 2.7969l6.288 16.806-2.735-.457-6.287-16.806a2.834 2.834 0 0 1 .468-2.7969l17.002-20.6337a2.834 2.834 0 0 1 2.655-.9937l17.961 3.0018.986 2.599-17.975-3.0043a2.8358 2.8358 0 0 0-2.656.9937l-15.239 18.4942Zm40.651-18.1188.986 2.599c.933.156 1.713.7984 2.045 1.685l5.856 15.6527 2.734.457-6.79-18.1486a2.8354 2.8354 0 0 0-2.188-1.8033l-2.643-.4418Zm13.564 25.5867-2.735-.457.636 1.699c.355.949.177 2.015-.467 2.797l-15.239 18.494a2.8366 2.8366 0 0 1-2.656.994l-1.447-.242.947 2.593 1.471.246c.999.167 2.012-.212 2.656-.994l17.002-20.634c.644-.782.823-1.848.468-2.797l-.636-1.699Zm-46.286 17.773c.355.949 1.19 1.637 2.189 1.804l16.685 2.789.966 2.595-19.414-3.245a2.8363 2.8363 0 0 1-2.189-1.803l-1.086-2.903 2.735.457.114.306Z"/><path fill="#FA3AFE" d="M264.156 123.434a2.8363 2.8363 0 0 0-.467 2.797l8.397 22.445a2.8348 2.8348 0 0 0 2.188 1.803l23.636 3.95c.999.167 2.012-.211 2.656-.993l15.239-18.494c.644-.782.823-1.848.468-2.797l-8.397-22.445a2.8363 2.8363 0 0 0-2.189-1.803l-23.636-3.951a2.8366 2.8366 0 0 0-2.656.994l-15.239 18.494Zm16.924-22.084a2.8358 2.8358 0 0 0-2.656.994l-17.002 20.633a2.8366 2.8366 0 0 0-.468 2.797l9.369 25.041a2.836 2.836 0 0 0 2.188 1.804l26.37 4.407c1 .167 2.012-.212 2.656-.994l17.002-20.633c.645-.782.823-1.848.468-2.797l-9.368-25.041a2.8375 2.8375 0 0 0-2.189-1.804l-26.37-4.407Z"/><path fill="#FA3AFE" d="M272.309 74.5553a2.834 2.834 0 0 0-.468 2.7969l8.397 22.4445a2.8345 2.8345 0 0 0 2.189 1.8033l23.636 3.95a2.836 2.836 0 0 0 2.656-.993l15.239-18.4944a2.8363 2.8363 0 0 0 .467-2.797l-8.397-22.4445a2.8354 2.8354 0 0 0-2.188-1.8033l-23.636-3.9503a2.8357 2.8357 0 0 0-2.656.9936l-15.239 18.4942Zm16.923-22.0843a2.8366 2.8366 0 0 0-2.656.9936l-17.002 20.6337a2.8362 2.8362 0 0 0-.467 2.7969l9.368 25.0408a2.836 2.836 0 0 0 2.189 1.804l26.37 4.407c.999.167 2.012-.212 2.656-.994l17.002-20.6334a2.8363 2.8363 0 0 0 .467-2.797l-9.368-25.041a2.8354 2.8354 0 0 0-2.188-1.8033l-26.371-4.4073Z"/><path fill="#FA3AFE" d="M225.871 91.9347a2.836 2.836 0 0 0-.467 2.7969l8.397 22.4444a2.8348 2.8348 0 0 0 2.188 1.803l23.636 3.951c1 .167 2.012-.212 2.656-.994l15.239-18.494c.645-.782.823-1.848.468-2.797l-8.397-22.4445a2.8353 2.8353 0 0 0-2.189-1.8033l-23.635-3.9503c-1-.167-2.012.2117-2.656.9936l-15.24 18.4942Zm16.924-22.0843a2.8357 2.8357 0 0 0-2.656.9936l-17.002 20.6337a2.836 2.836 0 0 0-.467 2.7969l9.368 25.0414a2.8348 2.8348 0 0 0 2.188 1.803l26.371 4.407a2.836 2.836 0 0 0 2.656-.993l17.002-20.634c.644-.782.822-1.848.467-2.797l-9.368-25.041a2.8353 2.8353 0 0 0-2.189-1.8033l-26.37-4.4073Z"/><path fill="#fff" d="M272.263 129.966a2.8342 2.8342 0 0 0-.468 2.797l6.253 16.714-2.734-.457-6.253-16.714a2.8363 2.8363 0 0 1 .467-2.797l17.002-20.634a2.8358 2.8358 0 0 1 2.656-.994l18.064 3.019.992 2.6-18.084-3.022c-1-.167-2.012.212-2.656.994l-15.239 18.494Zm5.016 24.305 1.15 3.076a2.8347 2.8347 0 0 0 2.189 1.803l26.37 4.407c.999.167 2.012-.211 2.656-.993l17.002-20.634c.644-.782.822-1.848.467-2.797l-9.368-25.041a2.8347 2.8347 0 0 0-2.189-1.803l-2.704-.452.982 2.598c.974.163 1.788.833 2.134 1.758l8.411 22.483c.355.949.177 2.015-.468 2.797l-15.239 18.494a2.835 2.835 0 0 1-2.656.994l-23.636-3.951a2.8348 2.8348 0 0 1-2.188-1.803l-.179-.479-2.734-.457Z"/><path fill="#fff" d="m286.25 100.73-6.303-16.8466a2.8366 2.8366 0 0 1 .468-2.797l15.239-18.4941a2.8358 2.8358 0 0 1 2.656-.9937l18.014 3.0108-.97-2.5963-18.015-3.011a2.835 2.835 0 0 0-2.656.9937l-17.002 20.6336a2.8342 2.8342 0 0 0-.468 2.797l6.303 16.8466 2.734.457Zm35.579-35.2005-1.006-2.6024 2.886.4823c.999.167 1.833.8545 2.188 1.8034l9.369 25.0409a2.8366 2.8366 0 0 1-.468 2.797l-17.002 20.6333a2.8358 2.8358 0 0 1-2.656.994l-1.301-.217-.974-2.597 1.304.218c.999.167 2.011-.212 2.656-.994l15.239-18.4943a2.8363 2.8363 0 0 0 .467-2.797l-8.397-22.4444a2.8355 2.8355 0 0 0-2.188-1.8034l-.117-.0194Zm-14.561 45.3985-16.735-2.797a2.8363 2.8363 0 0 1-2.189-1.803l-.151-.405-2.734-.457 1.122 3.001c.355.949 1.19 1.637 2.189 1.804l19.481 3.256-.983-2.599Z"/><path fill="#fff" d="M233.978 98.4661a2.8364 2.8364 0 0 0-.468 2.7969l6.288 16.806-2.735-.457-6.287-16.806a2.834 2.834 0 0 1 .468-2.7969l17.002-20.6337a2.834 2.834 0 0 1 2.655-.9937l17.961 3.0018.986 2.599-17.975-3.0043a2.8358 2.8358 0 0 0-2.656.9937l-15.239 18.4942Zm40.651-18.1188.986 2.599c.933.156 1.713.7984 2.045 1.685l5.856 15.6527 2.734.457-6.79-18.1486a2.8354 2.8354 0 0 0-2.188-1.8033l-2.643-.4418Zm13.564 25.5867-2.735-.457.636 1.699c.355.949.177 2.015-.467 2.797l-15.239 18.494a2.8366 2.8366 0 0 1-2.656.994l-1.447-.242.947 2.593 1.471.246c.999.167 2.012-.212 2.656-.994l17.002-20.634c.644-.782.823-1.848.468-2.797l-.636-1.699Zm-46.286 17.773c.355.949 1.19 1.637 2.189 1.804l16.685 2.789.966 2.595-19.414-3.245a2.8363 2.8363 0 0 1-2.189-1.803l-1.086-2.903 2.735.457.114.306Z"/><path fill="#FA3AFE" d="M264.156 123.434a2.8363 2.8363 0 0 0-.467 2.797l8.397 22.445a2.8348 2.8348 0 0 0 2.188 1.803l23.636 3.95c.999.167 2.012-.211 2.656-.993l15.239-18.494c.644-.782.823-1.848.468-2.797l-8.397-22.445a2.8363 2.8363 0 0 0-2.189-1.803l-23.636-3.951a2.8366 2.8366 0 0 0-2.656.994l-15.239 18.494Zm16.924-22.084a2.8358 2.8358 0 0 0-2.656.994l-17.002 20.633a2.8366 2.8366 0 0 0-.468 2.797l9.369 25.041a2.836 2.836 0 0 0 2.188 1.804l26.37 4.407c1 .167 2.012-.212 2.656-.994l17.002-20.633c.645-.782.823-1.848.468-2.797l-9.368-25.041a2.8375 2.8375 0 0 0-2.189-1.804l-26.37-4.407Z"/><path fill="#FA3AFE" d="M272.309 74.5553a2.834 2.834 0 0 0-.468 2.7969l8.397 22.4445a2.8345 2.8345 0 0 0 2.189 1.8033l23.636 3.95a2.836 2.836 0 0 0 2.656-.993l15.239-18.4944a2.8363 2.8363 0 0 0 .467-2.797l-8.397-22.4445a2.8354 2.8354 0 0 0-2.188-1.8033l-23.636-3.9503a2.8357 2.8357 0 0 0-2.656.9936l-15.239 18.4942Zm16.923-22.0843a2.8366 2.8366 0 0 0-2.656.9936l-17.002 20.6337a2.8362 2.8362 0 0 0-.467 2.7969l9.368 25.0408a2.836 2.836 0 0 0 2.189 1.804l26.37 4.407c.999.167 2.012-.212 2.656-.994l17.002-20.6334a2.8363 2.8363 0 0 0 .467-2.797l-9.368-25.041a2.8354 2.8354 0 0 0-2.188-1.8033l-26.371-4.4073Z"/><path fill="#FA3AFE" d="M225.871 91.9347a2.836 2.836 0 0 0-.467 2.7969l8.397 22.4444a2.8348 2.8348 0 0 0 2.188 1.803l23.636 3.951c1 .167 2.012-.212 2.656-.994l15.239-18.494c.645-.782.823-1.848.468-2.797l-8.397-22.4445a2.8353 2.8353 0 0 0-2.189-1.8033l-23.635-3.9503c-1-.167-2.012.2117-2.656.9936l-15.24 18.4942Zm16.924-22.0843a2.8357 2.8357 0 0 0-2.656.9936l-17.002 20.6337a2.836 2.836 0 0 0-.467 2.7969l9.368 25.0414a2.8348 2.8348 0 0 0 2.188 1.803l26.371 4.407a2.836 2.836 0 0 0 2.656-.993l17.002-20.634c.644-.782.822-1.848.467-2.797l-9.368-25.041a2.8353 2.8353 0 0 0-2.189-1.8033l-26.37-4.4073Z"/><path fill="#fff" d="M370.177 151.502a2.8366 2.8366 0 0 0-.468 2.797l6.254 16.715-2.735-.457-6.253-16.715a2.8342 2.8342 0 0 1 .468-2.797l17.002-20.633a2.835 2.835 0 0 1 2.656-.994l18.063 3.019.992 2.6-18.084-3.023a2.8358 2.8358 0 0 0-2.656.994l-15.239 18.494Zm5.016 24.306 1.15 3.075c.355.949 1.19 1.636 2.189 1.803l26.37 4.408c.999.167 2.012-.212 2.656-.994l17.002-20.634c.644-.781.823-1.848.468-2.796l-9.369-25.041a2.836 2.836 0 0 0-2.188-1.804l-2.705-.452.982 2.598c.975.163 1.788.833 2.134 1.759l8.411 22.483c.355.948.177 2.015-.467 2.796l-15.239 18.495a2.8351 2.8351 0 0 1-2.656.993l-23.636-3.95a2.8363 2.8363 0 0 1-2.189-1.803l-.179-.479-2.734-.457Z"/><path fill="#fff" d="m384.165 122.267-6.303-16.847a2.8342 2.8342 0 0 1 .468-2.797l15.239-18.4938a2.836 2.836 0 0 1 2.656-.9936l18.014 3.0108-.97-2.5963-18.016-3.011a2.8368 2.8368 0 0 0-2.656.9936l-17.002 20.6333a2.8363 2.8363 0 0 0-.467 2.797l6.303 16.847 2.734.457Zm35.579-35.2005-1.006-2.6024 2.886.4823c.999.167 1.833.8545 2.188 1.8034l9.368 25.0412c.355.949.177 2.015-.467 2.797l-17.002 20.633a2.8358 2.8358 0 0 1-2.656.994l-1.301-.217-.975-2.597 1.305.218c.999.167 2.011-.212 2.656-.994l15.239-18.494c.644-.782.822-1.848.467-2.797l-8.397-22.4447a2.8355 2.8355 0 0 0-2.188-1.8034l-.117-.0194Zm-14.561 45.3985-16.735-2.797c-1-.167-1.834-.854-2.189-1.803l-.151-.405-2.735-.457 1.123 3.001a2.836 2.836 0 0 0 2.189 1.804l19.48 3.256-.982-2.599Z"/><path fill="#fff" d="M331.892 120.003a2.8363 2.8363 0 0 0-.467 2.797l6.287 16.806-2.734-.457-6.287-16.806a2.8363 2.8363 0 0 1 .467-2.797l17.002-20.6339a2.836 2.836 0 0 1 2.656-.9936l17.961 3.0015.986 2.599-17.975-3.004c-1-.167-2.012.212-2.656.994l-15.24 18.494Zm40.651-18.119.986 2.599c.934.156 1.714.798 2.045 1.685l5.856 15.652 2.735.457-6.79-18.148a2.8347 2.8347 0 0 0-2.189-1.803l-2.643-.442Zm13.564 25.586-2.734-.457.636 1.7c.355.949.177 2.015-.468 2.797l-15.239 18.494a2.835 2.835 0 0 1-2.656.994l-1.446-.242.947 2.593 1.471.245a2.836 2.836 0 0 0 2.656-.993l17.002-20.634c.644-.782.822-1.848.467-2.797l-.636-1.7Zm-46.285 17.774a2.836 2.836 0 0 0 2.188 1.804l16.686 2.788.966 2.596-19.415-3.245a2.8348 2.8348 0 0 1-2.188-1.803l-1.086-2.903 2.734.457.115.306Z"/><path fill="#FA3AFE" d="M362.063 144.978a2.8367 2.8367 0 0 0-.467 2.797l8.397 22.445a2.8348 2.8348 0 0 0 2.188 1.803l23.636 3.951c1 .167 2.012-.212 2.656-.994l15.239-18.494c.645-.782.823-1.848.468-2.797l-8.397-22.445a2.8347 2.8347 0 0 0-2.189-1.803l-23.635-3.95c-1-.167-2.012.211-2.656.993l-15.24 18.494Zm16.924-22.084a2.8358 2.8358 0 0 0-2.656.994l-17.002 20.633a2.8367 2.8367 0 0 0-.467 2.797l9.368 25.041a2.836 2.836 0 0 0 2.188 1.804l26.371 4.407c.999.167 2.011-.212 2.656-.994l17.002-20.633c.644-.782.822-1.848.467-2.797l-9.368-25.041a2.8347 2.8347 0 0 0-2.189-1.803l-26.37-4.408Z"/><path fill="#FA3AFE" d="M370.216 96.0993a2.8366 2.8366 0 0 0-.468 2.797l8.397 22.4447a2.8347 2.8347 0 0 0 2.189 1.803l23.636 3.95a2.836 2.836 0 0 0 2.656-.993l15.239-18.494c.644-.782.822-1.848.467-2.797l-8.397-22.4448a2.8354 2.8354 0 0 0-2.188-1.8033l-23.636-3.9503a2.8357 2.8357 0 0 0-2.656.9936l-15.239 18.4941Zm16.923-22.0843a2.8367 2.8367 0 0 0-2.656.9937l-17.002 20.6337a2.8361 2.8361 0 0 0-.467 2.7969l9.368 25.0407c.355.949 1.19 1.637 2.189 1.804l26.37 4.407c.999.167 2.012-.212 2.656-.994l17.002-20.633c.644-.782.822-1.848.467-2.797l-9.368-25.0413a2.8354 2.8354 0 0 0-2.188-1.8033l-26.371-4.4074Z"/><path fill="#FA3AFE" d="M323.779 113.479a2.8342 2.8342 0 0 0-.468 2.797l8.397 22.444a2.836 2.836 0 0 0 2.189 1.804l23.636 3.95c.999.167 2.011-.212 2.656-.994l15.239-18.494c.644-.782.822-1.848.467-2.797l-8.397-22.4442a2.8354 2.8354 0 0 0-2.188-1.8033l-23.636-3.9503a2.8357 2.8357 0 0 0-2.656.9936l-15.239 18.4942Zm16.923-22.0843a2.8368 2.8368 0 0 0-2.656.9936l-17.002 20.6337a2.8363 2.8363 0 0 0-.467 2.797l9.368 25.041a2.8347 2.8347 0 0 0 2.189 1.803l26.37 4.408c.999.167 2.012-.212 2.656-.994l17.002-20.634c.644-.782.822-1.848.467-2.797l-9.368-25.0407a2.8356 2.8356 0 0 0-2.188-1.8033l-26.371-4.4073Z"/><path fill="#fff" d="m125.536 154.955-6.303-16.847a2.8366 2.8366 0 0 1 .468-2.797l15.239-18.494a2.8358 2.8358 0 0 1 2.656-.994l18.014 3.011-.97-2.596-18.015-3.011c-1-.167-2.012.211-2.656.993l-17.002 20.634a2.8342 2.8342 0 0 0-.468 2.797l6.303 16.847 2.734.457Zm35.58-35.201-1.007-2.602 2.886.482c.999.167 1.833.854 2.188 1.803l9.369 25.041c.355.949.176 2.015-.468 2.797l-17.002 20.634a2.8358 2.8358 0 0 1-2.656.994l-1.301-.218-.974-2.597 1.304.218c.999.167 2.011-.212 2.656-.994l15.239-18.494c.644-.782.822-1.848.467-2.797l-8.397-22.444a2.8348 2.8348 0 0 0-2.188-1.803l-.116-.02Zm-14.561 45.399-16.736-2.797a2.8375 2.8375 0 0 1-2.189-1.804l-.151-.404-2.734-.457 1.122 3.001c.355.949 1.19 1.636 2.189 1.803l19.481 3.256-.982-2.598Z"/><path fill="#fff" d="M73.2639 152.691a2.8357 2.8357 0 0 0-.4675 2.797l6.2875 16.806-2.7344-.457-6.2874-16.806a2.8357 2.8357 0 0 1 .4675-2.797l17.002-20.634a2.8356 2.8356 0 0 1 2.6559-.994l17.9605 3.002.986 2.599-17.9751-3.004a2.8372 2.8372 0 0 0-2.6559.993l-15.2391 18.495Zm40.6511-18.119.986 2.599a2.649 2.649 0 0 1 2.045 1.685l5.856 15.652 2.734.457-6.79-18.148a2.8348 2.8348 0 0 0-2.188-1.803l-2.643-.442Zm13.564 25.586-2.735-.457.636 1.7c.355.949.177 2.015-.467 2.797l-15.239 18.494a2.8366 2.8366 0 0 1-2.656.994l-1.447-.242.947 2.592 1.471.246c.999.167 2.012-.212 2.656-.993l17.002-20.634c.644-.782.823-1.848.468-2.797l-.636-1.7Zm-46.2857 17.774a2.8352 2.8352 0 0 0 2.1885 1.803l16.6852 2.789.966 2.596-19.4141-3.245a2.837 2.837 0 0 1-2.1885-1.803l-1.0861-2.903 2.7343.457.1147.306Z"/><path fill="#FA3AFE" d="M112.147 128.881a2.8342 2.8342 0 0 0-.468 2.797l8.397 22.445a2.8347 2.8347 0 0 0 2.189 1.803l23.636 3.95a2.836 2.836 0 0 0 2.656-.993l15.239-18.494c.644-.782.822-1.849.467-2.797l-8.397-22.445a2.8348 2.8348 0 0 0-2.188-1.803l-23.636-3.951a2.8358 2.8358 0 0 0-2.656.994l-15.239 18.494Zm16.923-22.084a2.8366 2.8366 0 0 0-2.656.994l-17.002 20.633a2.8363 2.8363 0 0 0-.467 2.797l9.368 25.041a2.8347 2.8347 0 0 0 2.189 1.803l26.37 4.408c.999.167 2.012-.212 2.656-.994l17.002-20.633c.644-.782.822-1.849.467-2.797l-9.368-25.041a2.836 2.836 0 0 0-2.188-1.804l-26.371-4.407Z"/><path fill="#FA3AFE" d="M65.7097 146.261a2.8357 2.8357 0 0 0-.4675 2.797l8.3969 22.444a2.8364 2.8364 0 0 0 2.1885 1.804l23.636 3.95a2.837 2.837 0 0 0 2.6564-.994l15.239-18.494c.644-.782.822-1.848.467-2.797l-8.397-22.444a2.836 2.836 0 0 0-2.188-1.804l-23.6362-3.95a2.8357 2.8357 0 0 0-2.656.994l-15.2391 18.494Zm16.9237-22.084a2.835 2.835 0 0 0-2.656.993l-17.002 20.634a2.8357 2.8357 0 0 0-.4675 2.797l9.3683 25.041a2.835 2.835 0 0 0 2.1885 1.803l26.3703 4.407c.999.167 2.012-.211 2.656-.993l17.002-20.634c.644-.782.822-1.848.467-2.797l-9.368-25.041a2.8348 2.8348 0 0 0-2.188-1.803l-26.3706-4.407Z"/><path fill="#fff" d="M75.5806 87.3165a2.8357 2.8357 0 0 0-.4675 2.797l6.2532 16.7145-2.7343-.457-6.2532-16.7145a2.836 2.836 0 0 1 .4674-2.797l17.002-20.6336a2.8358 2.8358 0 0 1 2.656-.9937l18.0638 3.019.992 2.6-18.0844-3.0225a2.8358 2.8358 0 0 0-2.656.9937l-15.239 18.4941Zm5.0159 24.3055 1.1505 3.075a2.8364 2.8364 0 0 0 2.1885 1.804l26.3705 4.407c.999.167 2.012-.212 2.656-.994l17.002-20.6332a2.8363 2.8363 0 0 0 .467-2.797l-9.368-25.0409a2.8356 2.8356 0 0 0-2.189-1.8034l-2.704-.452.982 2.5983c.974.1628 1.788.833 2.134 1.7581l8.411 22.4829a2.8342 2.8342 0 0 1-.468 2.797L111.99 117.318a2.835 2.835 0 0 1-2.656.994l-23.6355-3.951a2.835 2.835 0 0 1-2.1885-1.803l-.1792-.479-2.7343-.457Z"/><path fill="#fff" d="m89.5679 58.0809-6.3027-16.8467a2.836 2.836 0 0 1 .4675-2.797l15.2391-18.4941a2.8355 2.8355 0 0 1 2.6562-.9937l18.014 3.0108-.97-2.5962-18.016-3.0111a2.8354 2.8354 0 0 0-2.6556.9937l-17.002 20.6336a2.8357 2.8357 0 0 0-.4675 2.797l6.3027 16.8467 2.7343.457Zm35.5791-35.2006-1.006-2.6023 2.886.4823c.999.167 1.833.8544 2.188 1.8033l9.368 25.041a2.836 2.836 0 0 1-.467 2.7969l-17.002 20.6337a2.8357 2.8357 0 0 1-2.656.9936l-1.301-.2174-.975-2.597 1.305.2179a2.8364 2.8364 0 0 0 2.656-.9936l15.239-18.4941a2.8363 2.8363 0 0 0 .467-2.797l-8.397-22.4445a2.8354 2.8354 0 0 0-2.188-1.8033l-.117-.0195Zm-14.561 45.3988L93.8506 65.482a2.8358 2.8358 0 0 1-2.1885-1.8033l-.1514-.4048-2.7343-.457 1.1228 3.0013a2.8356 2.8356 0 0 0 2.1885 1.8033l19.4803 3.2559-.982-2.5983Z"/><path fill="#fff" d="M37.2957 55.8169a2.8355 2.8355 0 0 0-.4675 2.7969l6.2875 16.8061-2.7344-.457-6.2874-16.8061a2.8356 2.8356 0 0 1 .4675-2.7969l17.002-20.6337a2.8357 2.8357 0 0 1 2.656-.9936l17.9604 3.0017.986 2.599-17.9751-3.0042a2.8356 2.8356 0 0 0-2.6559.9936L37.2957 55.8169Zm40.6508-18.1187.9861 2.5989a2.65 2.65 0 0 1 2.045 1.6851l5.8558 15.6524 2.7343.457-6.7896-18.1484a2.8356 2.8356 0 0 0-2.1885-1.8033l-2.6431-.4417Zm13.564 25.5864-2.7343-.457.6359 1.6996a2.8357 2.8357 0 0 1-.4675 2.797L73.7055 85.8183a2.8356 2.8356 0 0 1-2.6559.9937l-1.4463-.2417.9467 2.5923 1.4709.2459a2.8357 2.8357 0 0 0 2.656-.9937l17.002-20.6336a2.8357 2.8357 0 0 0 .4675-2.797l-.6359-1.6996ZM45.2251 81.0583a2.8358 2.8358 0 0 0 2.1885 1.8033l16.6856 2.7888.9659 2.5955-19.4144-3.2448a2.8356 2.8356 0 0 1-2.1885-1.8033l-1.0861-2.903 2.7343.457.1147.3065Z"/><path fill="#FA3AFE" d="M67.4744 80.785a2.836 2.836 0 0 0-.4674 2.797l8.3968 22.444a2.8364 2.8364 0 0 0 2.1885 1.804l23.6357 3.95c1 .167 2.012-.212 2.656-.994l15.239-18.4937a2.8342 2.8342 0 0 0 .468-2.797l-8.397-22.4444a2.8356 2.8356 0 0 0-2.189-1.8034l-23.6355-3.9503a2.8357 2.8357 0 0 0-2.656.9937L67.4744 80.785Zm16.9237-22.0843a2.8358 2.8358 0 0 0-2.656.9937L64.7401 80.328a2.8357 2.8357 0 0 0-.4675 2.797l9.3683 25.041a2.8352 2.8352 0 0 0 2.1885 1.803l26.3706 4.408c.999.167 2.011-.212 2.656-.994l17.002-20.6337a2.8363 2.8363 0 0 0 .467-2.797l-9.368-25.0409a2.8356 2.8356 0 0 0-2.189-1.8034l-26.3699-4.4073Z"/><path fill="#FA3AFE" d="M75.6266 31.9057a2.8357 2.8357 0 0 0-.4675 2.797l8.3969 22.4445a2.8356 2.8356 0 0 0 2.1885 1.8033l23.6355 3.9503c1 .1671 2.012-.2117 2.656-.9936l15.239-18.4941a2.8342 2.8342 0 0 0 .468-2.797l-8.397-22.4445a2.8354 2.8354 0 0 0-2.188-1.8033l-23.6364-3.9504a2.8359 2.8359 0 0 0-2.656.9937l-15.239 18.4941ZM92.5502 9.8215a2.8358 2.8358 0 0 0-2.656.9936L72.8923 31.4487a2.8357 2.8357 0 0 0-.4675 2.797l9.3682 25.041a2.8358 2.8358 0 0 0 2.1886 1.8033l26.3704 4.4073a2.8357 2.8357 0 0 0 2.656-.9936l17.002-20.6336a2.8363 2.8363 0 0 0 .467-2.797l-9.368-25.041a2.8353 2.8353 0 0 0-2.189-1.8033L92.5502 9.8215Z"/><path fill="#FA3AFE" d="M29.1896 49.2854a2.8356 2.8356 0 0 0-.4675 2.7969l8.3969 22.4445a2.836 2.836 0 0 0 2.1885 1.8034l23.6359 3.9503a2.8358 2.8358 0 0 0 2.656-.9937l15.2391-18.4941a2.836 2.836 0 0 0 .4674-2.797L72.909 35.5512a2.8355 2.8355 0 0 0-2.1885-1.8033l-23.6359-3.9503a2.8357 2.8357 0 0 0-2.656.9936l-15.239 18.4942Zm16.9236-22.0843a2.836 2.836 0 0 0-2.656.9936l-17.002 20.6337a2.8358 2.8358 0 0 0-.4674 2.7969l9.3682 25.041a2.8358 2.8358 0 0 0 2.1886 1.8033l26.3702 4.4074a2.8358 2.8358 0 0 0 2.656-.9937l17.002-20.6336a2.836 2.836 0 0 0 .4674-2.797l-9.3682-25.041a2.8358 2.8358 0 0 0-2.1885-1.8033l-26.3703-4.4073Z"/></g><defs><clipPath id="a"><path fill="#fff" d="M0 0h439v143H0z"/></clipPath></defs></svg>